<?xml version="1.0" ?><!-- Uploaded to: SVG Repo, www.svgrepo.com, Generator: SVG Repo Mixer Tools -->
<svg width="800px" height="800px" viewBox="0 0 24 24" fill="none" xmlns="http://www.w3.org/2000/svg"><path clip-rule="evenodd" d="M11.3761 6L10.7094 4H13.1597L12.4931 6H11.3761ZM9.72451 7.36547C9.71816 7.34929 9.71221 7.33287 9.70666 7.31623L8.37333 3.31623C8.15749 2.6687 8.63945 2 9.32201 2H14.5472C15.2297 2 15.7117 2.6687 15.4958 3.31623L14.1625 7.31623C14.157 7.33287 14.151 7.34929 14.1447 7.36547L15.8575 18.4992C15.906 18.814 15.8015 19.1331 15.5763 19.3583L12.6417 22.2929C12.2512 22.6834 11.618 22.6834 11.2275 22.2929L8.2929 19.3583C8.06766 19.1331 7.9632 18.814 8.01164 18.4992L9.72451 7.36547ZM11.6504 8L10.0654 18.3024L11.9346 20.1716L13.8037 18.3024L12.2187 8H11.6504Z" fill="#000000" fill-rule="evenodd"/></svg>