<svg xmlns="http://www.w3.org/2000/svg" xmlns:xlink="http://www.w3.org/1999/xlink" version="1.1" x="0px" y="0px" viewBox="0 0 64 80" style="enable-background:new 0 0 64 64;" xml:space="preserve"><g><polygon points="27,37 25,37 25,41 27,41 27,43 29,43 29,39 27,39  "/><path d="M17.875,27H25v-8.256C21.7,20.493,19.14,23.44,17.875,27z M23,25h-2v-2h2V25z"/><path d="M45.739,38H39v7.256C41.987,43.673,44.374,41.112,45.739,38z M41,40h2v2h-2V40z"/><path d="M49.809,22.247c-2.766-2.213-5.906-3.852-9.236-4.903C45.605,20.299,49,25.754,49,32c0,6.246-3.395,11.701-8.427,14.656   c3.331-1.051,6.47-2.69,9.236-4.903L62,32L49.809,22.247z"/><path d="M35,17.302V21h2v-3.125C36.35,17.644,35.687,17.442,35,17.302z"/><path d="M47,32c0-5.743-3.248-10.737-8-13.256V22c0,0.552-0.448,1-1,1h-4c-0.552,0-1-0.448-1-1v-4.949   C32.668,17.029,32.338,17,32,17c-1.755,0-3.433,0.319-5,0.875V28c0,0.552-0.448,1-1,1h-8.698C17.105,29.97,17,30.973,17,32   c0,8.271,6.729,15,15,15c1.755,0,3.433-0.319,5-0.875V37c0-0.552,0.448-1,1-1h8.442C46.796,34.724,47,33.387,47,32z M31,32   c0,0.552-0.448,1-1,1h-7v2h5c0.552,0,1,0.448,1,1v3h2v5c0,0.552-0.448,1-1,1h-4c-0.552,0-1-0.448-1-1v-3h-2v-4h-1   c-0.552,0-1-0.448-1-1v-3h-2v-2h10v-2h2V32z M31,27h-2v-4h2V27z M31,21h-2v-2h2V21z M33,25h2v4h-2V25z M35,45h-2v-2h2V45z M35,41   h-2v-2h2V41z M39,33c0,0.552-0.448,1-1,1h-3v3h-2v-4c0-0.552,0.448-1,1-1h3v-2h2V33z M43,34h-2v-6h-4v-2h5c0.552,0,1,0.448,1,1V34z   "/><path d="M15,32c0-6.246,3.395-11.701,8.428-14.656c-3.331,1.051-6.47,2.69-9.236,4.903L2,32l12.191,9.753   c2.766,2.213,5.906,3.852,9.236,4.903C18.395,43.701,15,38.246,15,32z"/></g><text x="0" y="79" fill="#000000" font-size="5px" font-weight="bold" font-family="'Helvetica Neue', Helvetica, Arial-Unicode, Arial, Sans-serif">Created by Template</text><text x="0" y="84" fill="#000000" font-size="5px" font-weight="bold" font-family="'Helvetica Neue', Helvetica, Arial-Unicode, Arial, Sans-serif">from the Noun Project</text></svg>